<?xml version="1.0" encoding="UTF-8" standalone="no"?>
<svg
   xmlns:dc="http://purl.org/dc/elements/1.1/"
   xmlns:cc="http://creativecommons.org/ns#"
   xmlns:rdf="http://www.w3.org/1999/02/22-rdf-syntax-ns#"
   xmlns:svg="http://www.w3.org/2000/svg"
   xmlns="http://www.w3.org/2000/svg"
   xmlns:sodipodi="http://sodipodi.sourceforge.net/DTD/sodipodi-0.dtd"
   xmlns:inkscape="http://www.inkscape.org/namespaces/inkscape"
   viewBox="0 0 64 52"
   version="1.1"
   x="0px"
   y="0px"
   id="svg2"
   inkscape:version="0.91 r13725"
   sodipodi:docname="directions.svg"
   width="64"
   height="52">
  <metadata
     id="metadata24">
    <rdf:RDF>
      <cc:Work
         rdf:about="">
        <dc:format>image/svg+xml</dc:format>
        <dc:type
           rdf:resource="http://purl.org/dc/dcmitype/StillImage" />
        <dc:title></dc:title>
      </cc:Work>
    </rdf:RDF>
  </metadata>
  <defs
     id="defs22" />
  <sodipodi:namedview
     pagecolor="#ffffff"
     bordercolor="#666666"
     borderopacity="1"
     objecttolerance="10"
     gridtolerance="10"
     guidetolerance="10"
     inkscape:pageopacity="0"
     inkscape:pageshadow="2"
     inkscape:window-width="978"
     inkscape:window-height="824"
     id="namedview20"
     showgrid="false"
     inkscape:zoom="7.1200939"
     inkscape:cx="37.008421"
     inkscape:cy="30.653565"
     inkscape:window-x="3086"
     inkscape:window-y="320"
     inkscape:window-maximized="0"
     inkscape:current-layer="g4" />
  <g
     id="g4"
     transform="translate(11.917373,-47.112818)">
    <path
       style="fill:#ffffff;fill-opacity:1;fill-rule:nonzero;stroke:none"
       d="m 30.223252,48.335467 -20.601561,7.617187 -21.539064,-7.960937 0,42.875 21.0468758,7.777344 0.164062,0.0625 0.5039072,-0.0039 20.421874,-7.492187 21.378906,7.902344 0,-42.871094 z M 8.6412218,96.452654 -10.030654,89.550311 l 0,-38.851563 18.6718758,6.902344 z m 1.8867182,-38.882812 18.75,-6.875 0,38.855469 -18.75,6.929687 z m 39.183593,38.835938 -18.546875,-6.859376 0,-38.847656 18.546875,6.855469 z m 0,0"
       id="path6"
       inkscape:connector-curvature="0" />
    <path
       style="fill:#ffffff;fill-opacity:1;fill-rule:nonzero;stroke:none"
       d="m -10.25331,83.323748 c -0.527344,-0.07813 -0.851563,-0.164062 -0.851563,-0.164062 l 0.40625,-1.511719 c 0.01953,0.0078 0.273437,0.07031 0.675781,0.132813 z m 0,0"
       id="path8"
       inkscape:connector-curvature="0" />
    <path
       style="fill:#ffffff;fill-opacity:1;fill-rule:nonzero;stroke:none"
       d="m -8.5619032,83.43703 -0.019532,-1.5625 c 0.492188,-0.0039 0.972657,-0.05469 1.414063,-0.148438 l 0.320313,1.53125 c -0.542969,0.113281 -1.121094,0.171875 -1.714844,0.179688 z m 3.390625,-0.746094 -0.6875,-1.402344 c 0.410156,-0.203125 0.777343,-0.457031 1.097656,-0.757812 l 1.074219,1.132812 c -0.433594,0.40625 -0.933594,0.753906 -1.484375,1.027344 z m 2.589843,-2.445313 -1.359374,-0.777343 c 0.21875,-0.378907 0.398437,-0.8125 0.539062,-1.28125 l 1.5,0.445312 c -0.175781,0.585938 -0.402344,1.128906 -0.679688,1.613281 z M 44.145127,79.81203 c -0.1875,-0.460938 -0.382813,-0.96875 -0.574219,-1.507813 l 1.472656,-0.523437 c 0.183594,0.515624 0.367188,1 0.546876,1.445312 z m -45.6132802,-2.667969 -1.480469,-0.496094 c 0.179687,-0.542969 0.382813,-1.054687 0.601563,-1.539063 l 1.42578102,0.640626 c -0.19921902,0.4375 -0.38281302,0.90625 -0.54687502,1.394531 z M 43.051377,76.800311 C 42.887314,76.296404 42.723252,75.788592 42.563096,75.28078 l 1.492187,-0.460938 c 0.15625,0.492188 0.316407,0.992188 0.480469,1.488281 z M 23.606064,76.171404 23.078721,74.698748 c 0.394531,-0.140625 0.855469,-0.347656 1.363281,-0.597656 l 0.691406,1.398438 c -0.570312,0.28125 -1.085937,0.511718 -1.527344,0.671874 z m -2.136718,-0.03516 c -0.300782,-0.164062 -0.828125,-0.34375 -1.339844,-0.511718 l 0.496094,-1.484376 c 0.707031,0.238282 1.203125,0.410157 1.597656,0.625 z m -2.855469,-1.039062 c -0.472656,-0.175782 -0.980469,-0.382813 -1.507813,-0.625 l 0.65625,-1.417969 c 0.492188,0.226567 0.960938,0.417973 1.398438,0.582035 z m 7.949219,-0.33984 -0.746094,-1.371094 c 0.441406,-0.242187 0.902344,-0.496094 1.367188,-0.761718 l 0.769531,1.359374 c -0.472657,0.265626 -0.941407,0.53125 -1.390625,0.773438 z M -0.24159118,74.421404 -1.5931532,73.636248 c 0.292968,-0.5 0.59765602,-0.964844 0.91015602,-1.390625 l 1.25781198,0.925781 c -0.28124998,0.382813 -0.55468698,0.796876 -0.81640598,1.25 z m 42.33984318,-0.65625 -0.445312,-1.519531 1.5,-0.4375 0.445312,1.511719 z m -26.457031,-0.05469 c -0.449219,-0.265625 -0.914063,-0.5625 -1.382813,-0.898437 l 0.910156,-1.269532 c 0.425782,0.308594 0.847657,0.578125 1.257813,0.816406 z m 13.6875,-0.511719 -0.777344,-1.355468 1.378906,-0.78125 0.769531,1.359374 z m -27.8085932,-1.175781 -1.144531,-1.0625 c 0.386718,-0.414063 0.796875,-0.804687 1.21875,-1.15625 l 0.996094,1.203125 c -0.347657,0.292969 -0.710938,0.628906 -1.070313,1.015625 z M 12.96544,71.784686 C 12.817002,71.65578 12.668564,71.522967 12.524033,71.386248 12.281846,71.163592 12.043564,70.960467 11.80919,70.772967 l 0.964843,-1.226563 c 0.265625,0.210938 0.539063,0.441407 0.816407,0.699219 0.132812,0.125 0.265624,0.246094 0.398437,0.363281 z m 19.101562,-0.121094 -0.742188,-1.375 c 0.535157,-0.289062 1.023438,-0.539062 1.460938,-0.734375 l 0.644531,1.421875 c -0.40625,0.183594 -0.867187,0.421875 -1.363281,0.6875 z m 9.167969,-0.78125 c -0.152344,-0.300781 -0.402344,-0.523438 -0.765625,-0.6875 l 0.640625,-1.425781 c 0.6875,0.3125 1.199219,0.78125 1.515625,1.398437 z m -6.4375,-0.390625 -0.410157,-1.507813 c 0.492188,-0.132812 1.03125,-0.261718 1.589844,-0.371093 l 0.296875,1.53125 c -0.519531,0.105469 -1.019531,0.222656 -1.476562,0.347656 z M 3.7701278,70.183123 2.9966908,68.823748 c 0.4375,-0.246094 1.078124,-0.554687 1.65625,-0.609375 l 0.316406,1.535157 -0.175782,0.02344 c -0.171874,0.01563 -0.535156,0.132813 -1.023437,0.410156 z M 10.609971,69.979998 C 10.18419,69.74953 9.746691,69.577654 9.3170028,69.460467 L 9.723253,67.952654 c 0.546874,0.148438 1.093749,0.367188 1.624999,0.652344 z m 27.144531,-0.05078 -0.140625,-1.554687 c 0.351563,-0.03125 0.710937,-0.03906 1.039063,-0.04688 0.226562,0 0.453124,0.0078 0.667968,0.02344 l -0.117187,1.558594 c -0.1875,-0.01563 -0.382813,-0.01172 -0.570313,-0.01953 -0.289062,-0.0039 -0.582031,0.01172 -0.878906,0.03906 z M 6.5474718,69.413592 6.2466908,67.878436 c 0.597656,-0.113282 1.117187,-0.167969 1.640624,-0.167969 l 0.07813,0.78125 -0.02344,0.78125 c -0.476562,-0.0039 -0.902344,0.04297 -1.394531,0.140625 z m 0,0"
       id="path10"
       inkscape:connector-curvature="0" />
    <path
       style="fill:#000000;fill-opacity:1;fill-rule:nonzero;stroke:none"
       d="m 45.445908,82.175311 c -0.1875,-0.183594 -0.375,-0.449219 -0.574218,-0.804688 l 1.363281,-0.765625 c 0.171875,0.308594 0.277343,0.425782 0.316406,0.464844 z m 0,0"
       id="path12"
       inkscape:connector-curvature="0" />
    <path
       style="fill:#ffffff;fill-opacity:1;fill-rule:nonzero;stroke:none"
       d="m 48.504502,79.831561 -1.105469,-1.105469 -1.917969,1.921875 -1.921874,-1.921875 -1.109376,1.105469 1.925782,1.921875 -1.925782,1.921875 1.109376,1.105469 1.921874,-1.921876 1.917969,1.921876 1.105469,-1.105469 -1.921875,-1.921875 z m 0,0"
       id="path14"
       inkscape:connector-curvature="0" />
  </g>
</svg>
