<?xml version="1.0" encoding="UTF-8" standalone="no"?>
<svg
   xmlns:dc="http://purl.org/dc/elements/1.1/"
   xmlns:cc="http://creativecommons.org/ns#"
   xmlns:rdf="http://www.w3.org/1999/02/22-rdf-syntax-ns#"
   xmlns:svg="http://www.w3.org/2000/svg"
   xmlns="http://www.w3.org/2000/svg"
   xmlns:sodipodi="http://sodipodi.sourceforge.net/DTD/sodipodi-0.dtd"
   xmlns:inkscape="http://www.inkscape.org/namespaces/inkscape"
   version="1.1"
   x="0px"
   y="0px"
   viewBox="0 0 90 85"
   enable-background="new 0 0 100 100"
   xml:space="preserve"
   id="svg2"
   inkscape:version="0.91 r13725"
   sodipodi:docname="rsvp.svg"
   width="90"
   height="85"><metadata
     id="metadata14"><rdf:RDF><cc:Work
         rdf:about=""><dc:format>image/svg+xml</dc:format><dc:type
           rdf:resource="http://purl.org/dc/dcmitype/StillImage" /><dc:title /></cc:Work></rdf:RDF></metadata><defs
     id="defs12" /><sodipodi:namedview
     pagecolor="#ffffff"
     bordercolor="#666666"
     borderopacity="1"
     objecttolerance="10"
     gridtolerance="10"
     guidetolerance="10"
     inkscape:pageopacity="0"
     inkscape:pageshadow="2"
     inkscape:window-width="1335"
     inkscape:window-height="948"
     id="namedview10"
     showgrid="false"
     inkscape:zoom="3.776"
     inkscape:cx="10.9375"
     inkscape:cy="62.5"
     inkscape:window-x="2729"
     inkscape:window-y="412"
     inkscape:window-maximized="0"
     inkscape:current-layer="svg2" /><path
     d="M 27.28,54.095 45.398,69.141 45.357,69.176 27.28,54.095 Z M 45.378,65.579 29.016,51.992 45.343,65.61 45.378,65.579 Z M 90,30.07 90,85 0,85 0,30.065 l 9.622,-6.307 0,-15.056 22.97,0 12.692,-8.319 12.53,8.319 22.558,0 0,14.976 L 90,30.07 Z m -9.627,5.943 5.998,-5.079 -5.998,-3.982 0,9.061 z M 37.566,8.702 l 15.318,0 -7.61,-5.052 -7.708,5.052 z m -25.217,29.389 16.667,13.901 16.327,13.618 0.036,-0.031 32.268,-27.48 0,-12.957 0,-3.274 0,-10.439 -15.725,0 -4.931,0 -23.585,0 -4.974,0 -16.083,0 0,10.542 0,3.261 0,12.859 z m -8.696,-7.159 5.969,4.957 0,-8.869 -5.969,3.912 z M 87.273,33.743 45.434,69.17 45.399,69.141 27.28,54.095 2.727,33.706 l 0,48.568 84.547,0 0,-48.531 z M 44.797,51.124 c -7.066,0 -13.057,-5.173 -13.057,-13.447 0,-8.878 6.161,-16.549 15.731,-16.549 7.498,0 12.54,5.257 12.54,12.454 0,6.465 -3.621,10.259 -7.672,10.259 -1.725,0 -3.319,-1.164 -3.188,-3.794 l -0.173,0 c -1.508,2.543 -3.492,3.794 -6.077,3.794 -2.499,0 -4.654,-2.027 -4.654,-5.432 0,-5.343 4.224,-10.212 10.215,-10.212 1.851,0 3.49,0.388 4.609,0.905 l -1.463,7.8 c -0.648,3.275 -0.131,4.785 1.293,4.827 2.197,0.045 4.654,-2.887 4.654,-7.887 0,-6.248 -3.749,-10.731 -10.43,-10.731 -7.024,0 -12.928,5.561 -12.928,14.307 0,7.197 4.696,11.636 11.075,11.636 2.457,0 4.74,-0.517 6.507,-1.508 l 0.69,1.854 c -2.371,1.249 -4.783,1.724 -7.672,1.724 z m 5.301,-20.343 c -0.43,-0.128 -1.164,-0.302 -2.155,-0.302 -3.791,0 -6.851,3.576 -6.851,7.758 0,1.896 0.946,3.275 2.845,3.275 2.499,0 4.782,-3.188 5.257,-5.862 l 0.904,-4.869 z"
     id="path4"
     inkscape:connector-curvature="0"
     style="fill:#ffffff;fill-opacity:1" /></svg>